<svg width="62" height="67" viewBox="0 0 62 67" fill="none" xmlns="http://www.w3.org/2000/svg">
<path fill-rule="evenodd" clip-rule="evenodd" d="M24.5774 -2.58715L20.6669 -4.84429L19.7001 -9.37755C19.5282 -10.1826 18.7334 -10.6985 17.9283 -10.5265C17.1207 -10.3545 16.6061 -9.5597 16.7794 -8.75339L17.1844 -6.85547L15.3145 -7.93436C14.5999 -8.34705 13.6866 -8.10122 13.2739 -7.3879C12.8612 -6.67458 13.1071 -5.76001 13.8204 -5.34731L15.6903 -4.26842L13.8433 -3.66976C13.0587 -3.41628 12.6294 -2.57303 12.8829 -1.7884C13.1364 -1.00504 13.9796 -0.574476 14.7643 -0.827976L19.1739 -2.25715L23.0831 -8.58307e-06L19.1739 2.25713L14.7643 0.827959C13.9796 0.574478 13.1364 1.00501 12.8829 1.78838C12.6294 2.57301 13.0587 3.41627 13.8433 3.66974L15.6903 4.2684L13.8204 5.3473C13.1071 5.75999 12.8612 6.67457 13.2739 7.38788C13.6866 8.1012 14.5999 8.34704 15.3145 7.93434L17.1844 6.85545L16.7794 8.75337C16.6061 9.55969 17.1208 10.3545 17.9283 10.5265C18.7334 10.6984 19.5282 10.1825 19.7001 9.37753L20.6669 4.84427L24.5774 2.58713V7.10148L21.1342 10.2057C20.5215 10.7585 20.4731 11.7023 21.0259 12.3151C21.5775 12.9265 22.5226 12.9761 23.1353 12.4246L24.5772 11.1228V13.2831C24.5772 14.1072 25.246 14.776 26.0701 14.776C26.8942 14.776 27.563 14.1072 27.563 13.2831V11.1228L29.0049 12.4246C29.6176 12.9761 30.5627 12.9265 31.1143 12.3151C31.6671 11.7024 31.6174 10.7585 31.006 10.2057L27.5629 7.10148V2.58713L31.4733 4.84427L32.4401 9.37753C32.612 10.1826 33.4069 10.6984 34.2119 10.5265C35.0182 10.3545 35.5341 9.55969 35.3608 8.75337L34.9558 6.85545L36.8257 7.93434C37.5403 8.34704 38.4536 8.1012 38.8663 7.38788C39.2777 6.67457 39.0331 5.75999 38.3198 5.3473L36.4499 4.2684L38.2969 3.66974C39.0802 3.41626 39.5108 2.57301 39.2573 1.78838C39.0026 1.00502 38.1606 0.574459 37.376 0.827959L32.9663 2.25713L29.0571 -8.58307e-06L32.9663 -2.25715L37.376 -0.827976C38.1606 -0.574495 39.0026 -1.00503 39.2573 -1.7884C39.5108 -2.57303 39.0803 -3.41629 38.2969 -3.66976L36.4499 -4.26842L38.3198 -5.34731C39.0331 -5.76001 39.2777 -6.67459 38.8663 -7.3879C38.4536 -8.10122 37.5403 -8.34705 36.8257 -7.93436L34.9558 -6.85547L35.3608 -8.75339C35.5341 -9.5597 35.0182 -10.3545 34.2119 -10.5265C33.4069 -10.6984 32.612 -10.1826 32.4401 -9.37755L31.4733 -4.84429L27.5629 -2.58715V-7.1015L31.006 -10.2057C31.6174 -10.7585 31.6671 -11.7024 31.1143 -12.3151C30.5627 -12.9265 29.6176 -12.9762 29.0049 -12.4246L27.563 -11.1228V-13.2831C27.563 -14.1073 26.8942 -14.776 26.0701 -14.776C25.246 -14.776 24.5772 -14.1073 24.5772 -13.2831V-11.1228L23.1353 -12.4246C22.5226 -12.9762 21.5775 -12.9265 21.0259 -12.3151C20.4731 -11.7024 20.5215 -10.7585 21.1342 -10.2057L24.5774 -7.1015V-2.58715Z" fill="#F8CECE"/>
<g clip-path="url(#clip0_2001_191)">
<path fill-rule="evenodd" clip-rule="evenodd" d="M53.6019 26.4562L51.8628 25.9692L51.0387 24.3083C50.8923 24.0134 50.5331 23.8922 50.2382 24.0387C49.9423 24.1854 49.8217 24.5444 49.9688 24.8397L50.3139 25.535L49.4823 25.3023C49.1645 25.2133 48.8349 25.3991 48.7457 25.7164C48.6565 26.0337 48.8424 26.3638 49.1598 26.453L49.9914 26.6857L49.335 27.1008C49.056 27.2768 48.9733 27.6462 49.1493 27.9251C49.3252 28.2035 49.6946 28.2868 49.9736 28.1107L51.5407 27.1197L53.2794 27.6069L51.9883 28.8691L50.1377 28.7525C49.8086 28.732 49.5245 28.9825 49.5039 29.3112C49.4835 29.6403 49.7334 29.9246 50.0626 29.945L50.8377 29.9939L50.22 30.5974C49.9845 30.828 49.9799 31.2068 50.2106 31.4423C50.4412 31.6778 50.8195 31.6825 51.0555 31.4518L51.6732 30.8483L51.7044 31.6239C51.7172 31.9536 51.9954 32.2106 52.3254 32.1971C52.6544 32.184 52.9113 31.9053 52.8981 31.5762L52.8233 29.7237L54.1149 28.4613L54.5625 30.2107L53.5359 31.755C53.3533 32.03 53.4281 32.4005 53.7031 32.5832C53.9774 32.7654 54.3486 32.691 54.5314 32.4165L54.9611 31.7691L55.1753 32.6062C55.257 32.9256 55.5824 33.1184 55.9018 33.0367C56.2211 32.955 56.414 32.6296 56.3323 32.3102L56.1181 31.4731L56.8059 31.8346C57.0981 31.9876 57.4594 31.8746 57.6125 31.583C57.766 31.2908 57.6532 30.9299 57.3614 30.7763L55.7194 29.9147L55.2719 28.1653L57.011 28.6523L57.8351 30.3132C57.9815 30.6081 58.3407 30.7293 58.6356 30.5828C58.931 30.4362 59.0521 30.0771 58.905 29.7818L58.5599 29.0865L59.3915 29.3192C59.7093 29.4083 60.0389 29.2224 60.1281 28.9051C60.2168 28.5879 60.0314 28.2577 59.714 28.1685L58.8824 27.9358L59.5388 27.5207C59.8173 27.3448 59.9005 26.9754 59.7245 26.6964C59.5481 26.4181 59.1791 26.3347 58.9002 26.5108L57.3331 27.5018L55.5944 27.0146L56.8855 25.7524L58.7361 25.869C59.0652 25.8895 59.3488 25.6392 59.3699 25.3104C59.3903 24.9812 59.1399 24.6971 58.8112 24.6765L58.0361 24.6276L58.6538 24.0241C58.8893 23.7935 58.8934 23.4148 58.6632 23.1792C58.4326 22.9437 58.0543 22.939 57.8183 23.1697L57.2006 23.7732L57.1694 22.9976C57.1566 22.6679 56.8779 22.4111 56.5484 22.4244C56.2194 22.4375 55.9625 22.7163 55.9757 23.0453L56.0505 24.8978L54.7589 26.1602L54.3113 24.4108L55.3379 22.8665C55.52 22.5917 55.4457 22.221 55.1707 22.0383C54.8964 21.8561 54.5252 21.9305 54.3424 22.205L53.9127 22.8524L53.6985 22.0153C53.6168 21.6959 53.2914 21.5031 52.972 21.5848C52.6527 21.6665 52.4598 21.9919 52.5415 22.3113L52.7557 23.1484L52.0679 22.7869C51.7757 22.6339 51.4144 22.7469 51.2613 23.0385C51.1078 23.3307 51.2201 23.6917 51.5124 23.8452L53.1544 24.7068L53.6019 26.4562Z" fill="#F8CECE"/>
</g>
<g clip-path="url(#clip1_2001_191)">
<path fill-rule="evenodd" clip-rule="evenodd" d="M5.92747 59.2152L4.44404 58.1851L4.2099 56.3458C4.16821 56.0192 3.86859 55.787 3.54196 55.8287C3.21432 55.8703 2.98268 56.17 3.02484 56.4972L3.12299 57.2672L2.41362 56.7748C2.14255 56.5864 1.7703 56.654 1.582 56.9245C1.3937 57.1951 1.46118 57.5679 1.73175 57.7562L2.44112 58.2486L1.68492 58.4256C1.36371 58.5005 1.16446 58.8223 1.23933 59.1435C1.31424 59.4642 1.636 59.6639 1.95722 59.5891L3.76262 59.1665L5.24552 60.1966L3.61202 60.9659L1.90198 60.2491C1.59767 60.1219 1.24718 60.2654 1.12001 60.5692C0.992801 60.8735 1.13578 61.224 1.44009 61.3512L2.15634 61.6514L1.37499 62.0191C1.07689 62.1598 0.948385 62.5162 1.08909 62.8143C1.2298 63.1124 1.58565 63.2408 1.88425 63.1001L2.6656 62.7325L2.44083 63.4755C2.34488 63.7911 2.52349 64.1251 2.83965 64.2206C3.15481 64.316 3.48884 64.1369 3.58424 63.8217L4.12083 62.047L5.75486 61.2777L5.60426 63.0772L4.12825 64.1997C3.86558 64.3996 3.81481 64.7742 4.01472 65.0369C4.21417 65.299 4.58925 65.3503 4.85188 65.1509L5.47007 64.6801L5.398 65.5412C5.37051 65.8697 5.61477 66.1586 5.94327 66.1861C6.27177 66.2136 6.56064 65.9693 6.58813 65.6408L6.6602 64.7797L7.19153 65.3467C7.41735 65.587 7.79574 65.5987 8.036 65.3734C8.2768 65.1476 8.28849 64.7697 8.06321 64.529L6.7943 63.1768L6.9449 61.3773L8.42832 62.4075L8.66246 64.2467C8.70415 64.5733 9.00377 64.8055 9.3304 64.7638C9.65754 64.7221 9.88968 64.4225 9.84752 64.0953L9.74937 63.3253L10.4587 63.8177C10.7298 64.0061 11.1021 63.9386 11.2904 63.668C11.4782 63.3974 11.4112 63.0247 11.1406 62.8364L10.4312 62.3439L11.1874 62.1669C11.5081 62.092 11.7079 61.7703 11.633 61.449C11.5576 61.1283 11.2364 60.9286 10.9151 61.0034L9.10974 61.426L7.62684 60.3959L9.26034 59.6266L10.9704 60.3434C11.2747 60.4706 11.6247 60.3271 11.7523 60.0233C11.8796 59.719 11.7361 59.3685 11.4323 59.2413L10.716 58.9411L11.4974 58.5734C11.7955 58.4327 11.9235 58.0763 11.7833 57.7783C11.6426 57.4802 11.2867 57.3517 10.9881 57.4924L10.2068 57.86L10.4315 57.117C10.5275 56.8014 10.3484 56.4674 10.0327 56.3719C9.71755 56.2765 9.38352 56.4557 9.28812 56.7708L8.75153 58.5455L7.11751 59.3148L7.2681 57.5154L8.74412 56.3929C9.00627 56.1929 9.05755 55.8183 8.85764 55.5557C8.65819 55.2936 8.28311 55.2422 8.02048 55.4416L7.40229 55.9124L7.47436 55.0513C7.50185 54.7228 7.25759 54.4339 6.92909 54.4065C6.60059 54.379 6.31172 54.6232 6.28423 54.9517L6.21216 55.8128L5.68083 55.2458C5.45501 55.0055 5.07662 54.9938 4.83636 55.2191C4.59557 55.4449 4.58337 55.8227 4.80915 56.0636L6.07806 57.4158L5.92747 59.2152Z" fill="#F8CECE"/>
</g>
<defs>
<clipPath id="clip0_2001_191">
<rect width="12" height="12" fill="white" transform="translate(47.1797 22.9742) rotate(-14.3502)"/>
</clipPath>
<clipPath id="clip1_2001_191">
<rect width="12" height="12" fill="white" transform="translate(1.00098 53.8204) rotate(4.7839)"/>
</clipPath>
</defs>
</svg>
